<mxfile host="app.diagrams.net" modified="2022-06-21T00:42:43.616Z" agent="5.0 (Windows NT 10.0; Win64; x64) AppleWebKit/537.36 (KHTML, like Gecko) Chrome/102.0.0.0 Safari/537.36" etag="mJR8nU84T-EY3Ou7Rx4W" version="20.0.1" type="github">
  <diagram id="kgpKYQtTHZ0yAKxKKP6v" name="Page-1">
    <mxGraphModel dx="973" dy="473" grid="1" gridSize="10" guides="1" tooltips="1" connect="1" arrows="1" fold="1" page="1" pageScale="1" pageWidth="850" pageHeight="1100" math="0" shadow="0">
      <root>
        <mxCell id="0" />
        <mxCell id="1" parent="0" />
        <mxCell id="_muVhDr60phgIgJsRJF9-12" value="Sistema para Prestação de Serviço para PETS" style="shape=umlFrame;whiteSpace=wrap;html=1;sketch=0;width=280;height=30;" parent="1" vertex="1">
          <mxGeometry x="20" y="40" width="740" height="480" as="geometry" />
        </mxCell>
        <mxCell id="_muVhDr60phgIgJsRJF9-1" value="" style="shape=umlLifeline;participant=umlActor;perimeter=lifelinePerimeter;whiteSpace=wrap;html=1;container=1;collapsible=0;recursiveResize=0;verticalAlign=top;spacingTop=36;outlineConnect=0;rounded=0;sketch=0;" parent="1" vertex="1">
          <mxGeometry x="40" y="100" width="20" height="400" as="geometry" />
        </mxCell>
        <mxCell id="_muVhDr60phgIgJsRJF9-8" value="" style="html=1;points=[];perimeter=orthogonalPerimeter;sketch=0;" parent="_muVhDr60phgIgJsRJF9-1" vertex="1">
          <mxGeometry x="10" y="100" width="10" height="30" as="geometry" />
        </mxCell>
        <mxCell id="6cp8o_F83PpAeZEBxeit-22" value="" style="html=1;points=[];perimeter=orthogonalPerimeter;" vertex="1" parent="_muVhDr60phgIgJsRJF9-1">
          <mxGeometry x="10" y="220" width="10" height="30" as="geometry" />
        </mxCell>
        <mxCell id="6cp8o_F83PpAeZEBxeit-36" value="" style="html=1;points=[];perimeter=orthogonalPerimeter;" vertex="1" parent="_muVhDr60phgIgJsRJF9-1">
          <mxGeometry x="10" y="300" width="10" height="30" as="geometry" />
        </mxCell>
        <mxCell id="_muVhDr60phgIgJsRJF9-2" value=":formularioDeConsulta" style="shape=umlLifeline;perimeter=lifelinePerimeter;whiteSpace=wrap;html=1;container=1;collapsible=0;recursiveResize=0;outlineConnect=0;rounded=0;sketch=0;" parent="1" vertex="1">
          <mxGeometry x="110" y="100" width="130" height="400" as="geometry" />
        </mxCell>
        <mxCell id="_muVhDr60phgIgJsRJF9-10" value="" style="html=1;points=[];perimeter=orthogonalPerimeter;sketch=0;" parent="_muVhDr60phgIgJsRJF9-2" vertex="1">
          <mxGeometry x="65" y="100" width="10" height="30" as="geometry" />
        </mxCell>
        <mxCell id="6cp8o_F83PpAeZEBxeit-24" value="" style="html=1;points=[];perimeter=orthogonalPerimeter;" vertex="1" parent="_muVhDr60phgIgJsRJF9-2">
          <mxGeometry x="65" y="220" width="10" height="120" as="geometry" />
        </mxCell>
        <mxCell id="6cp8o_F83PpAeZEBxeit-1" value=":controleInformacoes" style="shape=umlLifeline;perimeter=lifelinePerimeter;whiteSpace=wrap;html=1;container=1;collapsible=0;recursiveResize=0;outlineConnect=0;" vertex="1" parent="1">
          <mxGeometry x="280" y="100" width="120" height="400" as="geometry" />
        </mxCell>
        <mxCell id="6cp8o_F83PpAeZEBxeit-9" value="" style="html=1;points=[];perimeter=orthogonalPerimeter;" vertex="1" parent="6cp8o_F83PpAeZEBxeit-1">
          <mxGeometry x="60" y="100" width="10" height="30" as="geometry" />
        </mxCell>
        <mxCell id="6cp8o_F83PpAeZEBxeit-25" value="" style="html=1;points=[];perimeter=orthogonalPerimeter;" vertex="1" parent="6cp8o_F83PpAeZEBxeit-1">
          <mxGeometry x="60" y="220" width="10" height="120" as="geometry" />
        </mxCell>
        <mxCell id="6cp8o_F83PpAeZEBxeit-2" value=":Cliente" style="shape=umlLifeline;perimeter=lifelinePerimeter;whiteSpace=wrap;html=1;container=1;collapsible=0;recursiveResize=0;outlineConnect=0;" vertex="1" parent="1">
          <mxGeometry x="460" y="100" width="100" height="400" as="geometry" />
        </mxCell>
        <mxCell id="6cp8o_F83PpAeZEBxeit-27" value="" style="html=1;points=[];perimeter=orthogonalPerimeter;" vertex="1" parent="6cp8o_F83PpAeZEBxeit-2">
          <mxGeometry x="50" y="220" width="10" height="50" as="geometry" />
        </mxCell>
        <mxCell id="6cp8o_F83PpAeZEBxeit-3" value=":DAO" style="shape=umlLifeline;perimeter=lifelinePerimeter;whiteSpace=wrap;html=1;container=1;collapsible=0;recursiveResize=0;outlineConnect=0;" vertex="1" parent="1">
          <mxGeometry x="630" y="100" width="100" height="400" as="geometry" />
        </mxCell>
        <mxCell id="6cp8o_F83PpAeZEBxeit-20" value="" style="html=1;points=[];perimeter=orthogonalPerimeter;" vertex="1" parent="6cp8o_F83PpAeZEBxeit-3">
          <mxGeometry x="50" y="100" width="10" height="40" as="geometry" />
        </mxCell>
        <mxCell id="6cp8o_F83PpAeZEBxeit-41" value="" style="html=1;points=[];perimeter=orthogonalPerimeter;" vertex="1" parent="6cp8o_F83PpAeZEBxeit-3">
          <mxGeometry x="50" y="290" width="10" height="50" as="geometry" />
        </mxCell>
        <mxCell id="6cp8o_F83PpAeZEBxeit-10" value="IncluirCliente()" style="html=1;verticalAlign=bottom;endArrow=block;rounded=0;exitX=0.9;exitY=0.014;exitDx=0;exitDy=0;exitPerimeter=0;entryX=0.6;entryY=0.014;entryDx=0;entryDy=0;entryPerimeter=0;" edge="1" parent="1" source="_muVhDr60phgIgJsRJF9-10" target="6cp8o_F83PpAeZEBxeit-9">
          <mxGeometry x="-0.16" y="1" width="80" relative="1" as="geometry">
            <mxPoint x="490" y="250" as="sourcePoint" />
            <mxPoint x="570" y="250" as="targetPoint" />
            <Array as="points" />
            <mxPoint as="offset" />
          </mxGeometry>
        </mxCell>
        <mxCell id="6cp8o_F83PpAeZEBxeit-12" value="IncluirCliente(nome, endereco, cpf, rg, status)" style="html=1;verticalAlign=bottom;endArrow=block;rounded=0;exitX=1;exitY=0;exitDx=0;exitDy=0;exitPerimeter=0;entryX=0;entryY=0;entryDx=0;entryDy=0;entryPerimeter=0;" edge="1" parent="1" source="6cp8o_F83PpAeZEBxeit-9" target="6cp8o_F83PpAeZEBxeit-20">
          <mxGeometry width="80" relative="1" as="geometry">
            <mxPoint x="490" y="250" as="sourcePoint" />
            <mxPoint x="570" y="250" as="targetPoint" />
          </mxGeometry>
        </mxCell>
        <mxCell id="6cp8o_F83PpAeZEBxeit-16" value="DadosCliente()" style="html=1;verticalAlign=bottom;endArrow=block;rounded=0;exitX=1.022;exitY=0.003;exitDx=0;exitDy=0;exitPerimeter=0;entryX=-0.011;entryY=0.003;entryDx=0;entryDy=0;entryPerimeter=0;" edge="1" parent="1" source="_muVhDr60phgIgJsRJF9-8" target="_muVhDr60phgIgJsRJF9-10">
          <mxGeometry width="80" relative="1" as="geometry">
            <mxPoint x="150" y="180" as="sourcePoint" />
            <mxPoint x="230" y="180" as="targetPoint" />
          </mxGeometry>
        </mxCell>
        <mxCell id="6cp8o_F83PpAeZEBxeit-21" value="retorna Cliente cadastrado" style="html=1;verticalAlign=bottom;endArrow=open;dashed=1;endSize=8;rounded=0;exitX=-0.267;exitY=1.067;exitDx=0;exitDy=0;exitPerimeter=0;" edge="1" parent="1" source="6cp8o_F83PpAeZEBxeit-20" target="_muVhDr60phgIgJsRJF9-2">
          <mxGeometry x="0.0037" relative="1" as="geometry">
            <mxPoint x="750" y="220" as="sourcePoint" />
            <mxPoint x="670" y="220" as="targetPoint" />
            <mxPoint as="offset" />
          </mxGeometry>
        </mxCell>
        <mxCell id="6cp8o_F83PpAeZEBxeit-15" value="Atendente" style="text;align=center;fontStyle=1;verticalAlign=middle;spacingLeft=3;spacingRight=3;strokeColor=none;rotatable=0;points=[[0,0.5],[1,0.5]];portConstraint=eastwest;" vertex="1" parent="1">
          <mxGeometry x="20" y="74" width="80" height="26" as="geometry" />
        </mxCell>
        <mxCell id="6cp8o_F83PpAeZEBxeit-26" value="ConsultarCliente()" style="html=1;verticalAlign=bottom;endArrow=block;rounded=0;exitX=1;exitY=0;exitDx=0;exitDy=0;exitPerimeter=0;entryX=-0.233;entryY=0;entryDx=0;entryDy=0;entryPerimeter=0;" edge="1" parent="1" source="6cp8o_F83PpAeZEBxeit-24" target="6cp8o_F83PpAeZEBxeit-25">
          <mxGeometry width="80" relative="1" as="geometry">
            <mxPoint x="200" y="249.5" as="sourcePoint" />
            <mxPoint x="280" y="249.5" as="targetPoint" />
          </mxGeometry>
        </mxCell>
        <mxCell id="6cp8o_F83PpAeZEBxeit-28" value="ConsultarCliente(Status)" style="html=1;verticalAlign=bottom;endArrow=block;rounded=0;entryX=-0.167;entryY=0.044;entryDx=0;entryDy=0;entryPerimeter=0;" edge="1" parent="1" target="6cp8o_F83PpAeZEBxeit-27">
          <mxGeometry width="80" relative="1" as="geometry">
            <mxPoint x="350" y="322" as="sourcePoint" />
            <mxPoint x="470" y="260" as="targetPoint" />
          </mxGeometry>
        </mxCell>
        <mxCell id="6cp8o_F83PpAeZEBxeit-29" value="retorna informação" style="html=1;verticalAlign=bottom;endArrow=open;dashed=1;endSize=8;rounded=0;exitX=0.033;exitY=0.987;exitDx=0;exitDy=0;exitPerimeter=0;entryX=1.043;entryY=0.405;entryDx=0;entryDy=0;entryPerimeter=0;" edge="1" parent="1" source="6cp8o_F83PpAeZEBxeit-27" target="6cp8o_F83PpAeZEBxeit-24">
          <mxGeometry relative="1" as="geometry">
            <mxPoint x="470" y="300" as="sourcePoint" />
            <mxPoint x="190" y="370" as="targetPoint" />
          </mxGeometry>
        </mxCell>
        <mxCell id="6cp8o_F83PpAeZEBxeit-30" value="Incluir clientes" style="shape=umlFrame;whiteSpace=wrap;html=1;width=110;height=30;" vertex="1" parent="1">
          <mxGeometry x="71" y="148" width="649" height="130" as="geometry" />
        </mxCell>
        <mxCell id="6cp8o_F83PpAeZEBxeit-23" value="ConsultarCliente()" style="html=1;verticalAlign=bottom;endArrow=block;rounded=0;entryX=-0.2;entryY=0.008;entryDx=0;entryDy=0;entryPerimeter=0;exitX=1.167;exitY=0.022;exitDx=0;exitDy=0;exitPerimeter=0;" edge="1" parent="1" source="6cp8o_F83PpAeZEBxeit-22" target="6cp8o_F83PpAeZEBxeit-24">
          <mxGeometry width="80" relative="1" as="geometry">
            <mxPoint x="60" y="250" as="sourcePoint" />
            <mxPoint x="140" y="250" as="targetPoint" />
          </mxGeometry>
        </mxCell>
        <mxCell id="6cp8o_F83PpAeZEBxeit-38" value="ValidarCliente()" style="html=1;verticalAlign=bottom;endArrow=block;rounded=0;exitX=1.1;exitY=-0.022;exitDx=0;exitDy=0;exitPerimeter=0;" edge="1" parent="1" source="6cp8o_F83PpAeZEBxeit-36" target="6cp8o_F83PpAeZEBxeit-24">
          <mxGeometry width="80" relative="1" as="geometry">
            <mxPoint x="90" y="400" as="sourcePoint" />
            <mxPoint x="170" y="400" as="targetPoint" />
          </mxGeometry>
        </mxCell>
        <mxCell id="6cp8o_F83PpAeZEBxeit-39" value="ValidaCliente()" style="html=1;verticalAlign=bottom;endArrow=block;rounded=0;exitX=1.133;exitY=0.661;exitDx=0;exitDy=0;exitPerimeter=0;" edge="1" parent="1" source="6cp8o_F83PpAeZEBxeit-24" target="6cp8o_F83PpAeZEBxeit-1">
          <mxGeometry width="80" relative="1" as="geometry">
            <mxPoint x="200" y="400" as="sourcePoint" />
            <mxPoint x="280" y="400" as="targetPoint" />
          </mxGeometry>
        </mxCell>
        <mxCell id="6cp8o_F83PpAeZEBxeit-40" value="ValidaCliente(Status)" style="html=1;verticalAlign=bottom;endArrow=block;rounded=0;" edge="1" parent="1" target="6cp8o_F83PpAeZEBxeit-41">
          <mxGeometry width="80" relative="1" as="geometry">
            <mxPoint x="350" y="400" as="sourcePoint" />
            <mxPoint x="430" y="400" as="targetPoint" />
          </mxGeometry>
        </mxCell>
        <mxCell id="6cp8o_F83PpAeZEBxeit-42" value="Grava Dados" style="html=1;verticalAlign=bottom;endArrow=open;dashed=1;endSize=8;rounded=0;entryX=1;entryY=0.994;entryDx=0;entryDy=0;entryPerimeter=0;" edge="1" parent="1" source="6cp8o_F83PpAeZEBxeit-41" target="6cp8o_F83PpAeZEBxeit-24">
          <mxGeometry relative="1" as="geometry">
            <mxPoint x="440" y="460" as="sourcePoint" />
            <mxPoint x="360" y="460" as="targetPoint" />
          </mxGeometry>
        </mxCell>
      </root>
    </mxGraphModel>
  </diagram>
</mxfile>
